<?xml version="1.0" encoding="UTF-8" standalone="no"?>
<svg width="64px" height="51px" viewBox="0 0 64 51" version="1.1" xmlns="http://www.w3.org/2000/svg" xmlns:xlink="http://www.w3.org/1999/xlink" xmlns:sketch="http://www.bohemiancoding.com/sketch/ns">
    <!-- Generator: Sketch 3.2.2 (9983) - http://www.bohemiancoding.com/sketch -->
    <title>Button</title>
    <desc>Created with Sketch.</desc>
    <defs></defs>
    <g id="Page-1" stroke="none" stroke-width="1" fill="none" fill-rule="evenodd" sketch:type="MSPage">
        <g id="Artboard-1" sketch:type="MSArtboardGroup" transform="translate(-64.000000, -71.000000)" fill="#FFFFFF">
            <g id="Button" sketch:type="MSLayerGroup" transform="translate(64.000000, 71.000000)">
                <path d="M64,27 L64,42.9992049 C64,47.417922 60.421945,51 55.9914846,51 L8.0085154,51 C3.58553448,51 0,47.4250523 0,42.9992049 L0,27 L0,32.9992049 C0,37.4250523 3.58553448,41 8.0085154,41 L55.9914846,41 C60.421945,41 64,37.417922 64,32.9992049 L64,27 Z" id="Rectangle-2" sketch:type="MSShapeGroup"></path>
                <path d="M0,8.00079513 C0,3.582078 3.57805502,0 8.0085154,0 L55.9914846,0 C60.4144655,0 64,3.57494774 64,8.00079513 L64,29.9992049 C64,34.417922 60.421945,38 55.9914846,38 L8.0085154,38 C3.58553448,38 0,34.4250523 0,29.9992049 L0,8.00079513 Z M29.6425781,21.3647656 L34.7558594,21.3647656 L32.2402344,13.4350781 L29.6425781,21.3647656 Z M29.9023438,8.82765625 L34.6601562,8.82765625 L41.796875,28.98 L37.2304688,28.98 L35.9316406,24.8374219 L28.5078125,24.8374219 L27.1132812,28.98 L22.7109375,28.98 L29.9023438,8.82765625 Z" id="Rectangle-1" sketch:type="MSShapeGroup"></path>
            </g>
        </g>
    </g>
</svg>