<?xml version="1.0" encoding="UTF-8" standalone="no"?>
<svg width="64px" height="40px" viewBox="0 0 64 40" version="1.1" xmlns="http://www.w3.org/2000/svg" xmlns:xlink="http://www.w3.org/1999/xlink" xmlns:sketch="http://www.bohemiancoding.com/sketch/ns">
    <!-- Generator: Sketch 3.2.2 (9983) - http://www.bohemiancoding.com/sketch -->
    <title>Checker</title>
    <desc>Created with Sketch.</desc>
    <defs></defs>
    <g id="Page-1" stroke="none" stroke-width="1" fill="none" fill-rule="evenodd" sketch:type="MSPage">
        <g id="Artboard-1" sketch:type="MSArtboardGroup" transform="translate(-192.000000, -76.000000)" fill="#FFFFFF">
            <g id="Checker" sketch:type="MSLayerGroup" transform="translate(192.000000, 76.000000)">
                <path d="M0,7.99845994 C0,3.58103249 3.58637817,0 8.00342045,0 L31,0 L31,40 L8.00342045,40 C3.58325339,40 0,36.4150647 0,32.0015401 L0,7.99845994 Z M14.4589844,21.5605469 L18.1113281,21.5605469 L16.3144531,15.8964844 L14.4589844,21.5605469 Z M14.6445312,12.6054688 L18.0429688,12.6054688 L23.140625,27 L19.8789062,27 L18.9511719,24.0410156 L13.6484375,24.0410156 L12.6523438,27 L9.5078125,27 L14.6445312,12.6054688 Z" id="Rectangle-4" sketch:type="MSShapeGroup"></path>
                <path d="M33,0 L55.9965796,0 C60.4167466,0 64,3.58493529 64,7.99845994 L64,32.0015401 C64,36.4189675 60.4136218,40 55.9965796,40 L33,40 L33,0 Z M45.4433594,15.1054688 L45.4433594,18.2792969 L48.9785156,18.2792969 C49.6100292,18.2792969 50.1227194,18.160483 50.5166016,17.9228516 C50.9104837,17.6852202 51.1074219,17.2636749 51.1074219,16.6582031 C51.1074219,15.9876269 50.8470078,15.5449229 50.3261719,15.3300781 C49.8769509,15.1803378 49.3040399,15.1054688 48.6074219,15.1054688 L45.4433594,15.1054688 Z M45.4433594,20.6621094 L45.4433594,24.5 L48.9785156,24.5 C49.6100292,24.5 50.1015607,24.4153654 50.453125,24.2460938 C51.091149,23.9335922 51.4101562,23.3346398 51.4101562,22.4492188 C51.4101562,21.7005171 51.1009146,21.1861993 50.4824219,20.90625 C50.1373681,20.7499992 49.6523469,20.6686198 49.0273438,20.6621094 L45.4433594,20.6621094 Z M53.3144531,14.1386719 C53.7571637,14.7506541 53.9785156,15.4830687 53.9785156,16.3359375 C53.9785156,17.2148481 53.7571637,17.9212213 53.3144531,18.4550781 C53.0670561,18.7545588 52.7024764,19.0279936 52.2207031,19.2753906 C52.9563839,19.542319 53.5113914,19.9654919 53.8857422,20.5449219 C54.260093,21.1243519 54.4472656,21.8274698 54.4472656,22.6542969 C54.4472656,23.5071657 54.232424,24.272132 53.8027344,24.9492188 C53.5292955,25.3984397 53.1875021,25.7760401 52.7773438,26.0820312 C52.3151019,26.4335955 51.7698599,26.6744785 51.1416016,26.8046875 C50.5133432,26.9348965 49.8313839,27 49.0957031,27 L42.5722656,27 L42.5722656,12.6054688 L49.5644531,12.6054688 C51.3287849,12.6315105 52.5787724,13.1425731 53.3144531,14.1386719 L53.3144531,14.1386719 Z" id="Rectangle-5" opacity="0.5" sketch:type="MSShapeGroup"></path>
            </g>
        </g>
    </g>
</svg>